<svg xmlns="http://www.w3.org/2000/svg" style="enable-background:new 0 0 80 80" viewBox="0 0 80 80" xml:space="preserve" aria-hidden="true"><style>.st7{fill:#fff;stroke:#000;stroke-linecap:square;stroke-linejoin:round;stroke-miterlimit:10}</style><path d="M60 56H20c-1.66 0-3-1.34-3-3V28c0-1.66 1.34-3 3-3h40c1.66 0 3 1.34 3 3v25c0 1.66-1.34 3-3 3z" style="fill:none;stroke:#000;stroke-width:2;stroke-linecap:round;stroke-linejoin:round;stroke-miterlimit:10"/><path d="M30.5 33c1.93 0 3.5 1.57 3.5 3.5S32.43 40 30.5 40 27 38.43 27 36.5s1.57-3.5 3.5-3.5m0-1c-2.48 0-4.5 2.02-4.5 4.5s2.02 4.5 4.5 4.5 4.5-2.02 4.5-4.5-2.02-4.5-4.5-4.5z"/><path d="M23.5 49v-1c0-3.87 3.13-7 7-7s7 3.13 7 7v1" style="fill:none;stroke:#000;stroke-linejoin:round;stroke-miterlimit:10"/><path class="st7" d="M43.5 34.5h12M43.5 38.5h10M43.5 42.5h12M43.5 46.5h10"/></svg>