<svg xmlns="http://www.w3.org/2000/svg" viewBox="0 0 150 150" xml:space="preserve"><title>Logo: Digid</title><path d="M136.2 150H13.8C6.2 150 0 143.8 0 136.2V13.8C0 6.2 6.2 0 13.8 0h122.4c7.6 0 13.8 6.2 13.8 13.8v122.4c0 7.6-6.2 13.8-13.8 13.8z"></path><path fill="#fff" d="M16.7 114.6V79.1h10.2c12 0 18.6 6 18.6 16.7 0 12.8-7.2 18.8-18.9 18.8h-9.9zm6.5-5.4h3.7c7.1 0 11.8-3.8 11.8-13.1 0-7.7-4.6-11.7-12.3-11.7h-3.2v24.8zM54.2 76.7c2.3 0 3.6 1.5 3.6 3.5 0 1.9-1.3 3.5-3.6 3.5s-3.6-1.4-3.6-3.5c.1-1.8 1.3-3.5 3.6-3.5zm3.1 37.9h-6.1V88l6.1-.3v26.9zM72.1 109.4h6.4c5.7 0 8.2 2.3 8.2 6.6 0 5.1-4.2 9.2-13.9 9.2-7.6 0-11.1-2.7-11.1-6.9 0-2.5 1.4-4.6 4.1-5.8v-.2c-1.2-.6-2.1-2-2.1-3.6 0-1.7 1-3.2 3-4v-.2c-2.4-1.4-3.8-3.6-3.8-7.1 0-6.5 4.4-10 11.1-10 1.5 0 2.8.2 4.1.5h8.6V92h-4.1v.2c1.1.9 2.1 2.7 2.1 5 0 5.9-4 9-11.3 9-1.2 0-2.3-.2-3.4-.4-.7.4-1.1 1-1.1 1.7-.2 1.2.7 1.9 3.2 1.9zm1.1 11.2c5.8 0 7.9-1.5 7.9-3.6 0-1.6-1-2.4-3.6-2.5l-8.9-.3c-1 .7-1.5 1.6-1.5 2.8.1 2.2 2 3.6 6.1 3.6zm5.7-23.8c0-3.2-1.8-5-5.2-5-3 0-5.2 1.7-5.2 5.3 0 3.5 1.9 4.9 5.1 4.9 3.3.1 5.3-1.4 5.3-5.2z" class="st0"></path><path fill="#e1700d" d="M93.7 76.7c2.3 0 3.6 1.5 3.6 3.5 0 1.9-1.3 3.5-3.6 3.5s-3.6-1.4-3.6-3.5c.1-1.8 1.3-3.5 3.6-3.5zm3.1 37.9h-6.1V88l6.1-.3v26.9zM104.5 114.6V79.1h10.2c12 0 18.6 6 18.6 16.7 0 12.8-7.2 18.8-18.9 18.8h-9.9zm6.5-5.4h3.7c7.1 0 11.8-3.8 11.8-13.1 0-7.7-4.6-11.7-12.3-11.7H111v24.8z" class="st1"></path></svg>