<?xml version="1.0" encoding="utf-8"?>
<!--Generator: Adobe Illustrator 23.0.2, SVG Export Plug-In . SVG Version: 6.00 Build 0)-->
<svg xmlns="http://www.w3.org/2000/svg" xmlns:xlink="http://www.w3.org/1999/xlink" x="0px" y="0px" class="vertical" style="enable-background:new 0 0 80 80" version="1.1" viewBox="0 0 80 80" xml:space="preserve" aria-hidden="true">
    <style type="text/css">
        .st0{fill:none;stroke:#000000;stroke-width:2;stroke-linejoin:round;stroke-miterlimit:10;} .st1{fill:none;stroke:#000000;stroke-linecap:square;stroke-linejoin:round;stroke-miterlimit:10;} .st2{fill:none;stroke:#000000;stroke-linecap:round;stroke-linejoin:round;stroke-miterlimit:10;} .st3{fill:none;stroke:#000000;stroke-width:1.0431;stroke-linecap:square;stroke-linejoin:round;stroke-miterlimit:10;} .st4{fill:none;stroke:#000000;stroke-width:2;stroke-miterlimit:10;} .st5{fill:none;stroke:#000000;stroke-width:2;stroke-linecap:round;stroke-linejoin:round;stroke-miterlimit:10;} .st6{fill:none;stroke:#000000;stroke-linejoin:round;stroke-miterlimit:10;} .st7{fill:#FFFFFF;stroke:#000000;stroke-linecap:square;stroke-linejoin:round;stroke-miterlimit:10;}
    </style>
    <g>
        <path d="M50,44v14c0,1.66-1.34,3-3,3H23c-1.66,0-3-1.34-3-3V16c0-1.66,1.34-3,3-3h24c1.66,0,3,1.34,3,3v3" class="st0"/>
        <line x1="31.5" x2="38.5" y1="17.5" y2="17.5" class="st1"/>
        <circle cx="35" cy="54" r="2.5" class="st2"/>
        <g>
            <g>
                <g>
                    <g>
                        <path d="M58.2,24c1,0,1.8,0.81,1.8,1.8V36.2c0,1-0.81,1.8-1.8,1.8h-7.82L43,42.88V38h-3.2c-1,0-1.8-0.81-1.8-1.8V25.8
						c0-1,0.81-1.8,1.8-1.8H58.2 M58.2,23H39.8c-1.55,0-2.8,1.26-2.8,2.8V36.2c0,1.55,1.26,2.8,2.8,2.8H42v3.88
						c0,0.37,0.2,0.71,0.53,0.88c0.15,0.08,0.31,0.12,0.47,0.12c0.19,0,0.39-0.06,0.55-0.17L50.68,39h7.52c1.55,0,2.8-1.26,2.8-2.8
						V25.8C61,24.26,59.74,23,58.2,23L58.2,23z"/>
                    </g>
                </g>
            </g>
        </g>
    </g>
</svg>
