<svg xmlns="http://www.w3.org/2000/svg" class="vertical" style="enable-background:new 0 0 80 80" viewBox="0 0 80 80" xml:space="preserve" aria-hidden="true"><style></style><path d="M54 42V16c0-1.66-1.34-3-3-3H27c-1.66 0-3 1.34-3 3v42c0 1.66 1.34 3 3 3h3" style="fill:none;stroke:#000;stroke-width:2;stroke-linejoin:round;stroke-miterlimit:10"/><path style="fill:none;stroke:#000;stroke-linecap:square;stroke-linejoin:round;stroke-miterlimit:10" d="M35.5 17.5h7"/><path d="m38.61 65.16-9.66-14.49c-.81-1.22-.53-2.86.64-3.74h0c1.1-.82 2.63-.71 3.6.26l3.31 3.31V35a2.5 2.5 0 0 1 2.5-2.5h0a2.5 2.5 0 0 1 2.5 2.5v15.5V44a2.5 2.5 0 0 1 2.5-2.5h0a2.5 2.5 0 0 1 2.5 2.5v7.5V47a2.5 2.5 0 0 1 2.5-2.5h0a2.5 2.5 0 0 1 2.5 2.5v5.5V49a2.5 2.5 0 0 1 2.5-2.5h0a2.5 2.5 0 0 1 2.5 2.5v11.5c0 3.31-2.69 6-6 6h-9.39c-1.01 0-1.94-.5-2.5-1.34z" style="fill:none;stroke:#000;stroke-linecap:round;stroke-linejoin:round;stroke-miterlimit:10"/></svg>