<svg xmlns="http://www.w3.org/2000/svg" xmlns:xlink="http://www.w3.org/1999/xlink" width="25" height="36"><defs><path d="M0 0h25v36H0z"/></defs><g fill="none" fill-rule="evenodd"><path fill="#FFF" d="M2.273 35.25a1.51 1.51 0 0 1-1.515-1.5V2.25c0-.827.68-1.5 1.515-1.5h13.663L24.242 9v24.75c0 .827-.68 1.5-1.515 1.5H2.273Z"/><g><mask fill="#fff"></mask><path fill="#000" d="M16.25 0H2.273A2.261 2.261 0 0 0 0 2.25v31.5A2.261 2.261 0 0 0 2.273 36h20.454A2.261 2.261 0 0 0 25 33.75V8.69L16.25 0Zm-.629 1.5 7.864 7.81v24.44c0 .414-.34.75-.758.75H2.273a.754.754 0 0 1-.758-.75V2.25c0-.414.34-.75.758-.75H15.62Z" /></g><path fill="#FFF" d="M2.273 35.25a1.51 1.51 0 0 1-1.515-1.5V2.25c0-.827.68-1.5 1.515-1.5h12.879v6c0 1.655 1.359 3 3.03 3h6.06v24c0 .827-.68 1.5-1.515 1.5H2.273Z"/><path fill="#000" d="M15.91 0H2.272A2.261 2.261 0 0 0 0 2.25v31.5A2.261 2.261 0 0 0 2.273 36h20.454A2.261 2.261 0 0 0 25 33.75V9h-6.818a2.261 2.261 0 0 1-2.273-2.25V0Zm-1.516 1.5v5.25c0 2.068 1.7 3.75 3.788 3.75h5.303v23.25c0 .414-.34.75-.758.75H2.273a.754.754 0 0 1-.758-.75V2.25c0-.414.34-.75.758-.75h12.12Z"/></g></svg>