<svg xmlns="http://www.w3.org/2000/svg" viewBox="0 0 18 18"><path d="M4.133 10.819a1.017 1.017 0 0 1 .583 1.946c-.386.116-.611.196-1.102.637-.235.222-.516 1.205-.691 2.317h5.994c.028 0 .055.005.082.007.026-.002.053-.007.08-.007h5.996c-.175-1.112-.456-2.095-.692-2.318-.49-.44-.714-.52-1.102-.636a1.016 1.016 0 0 1 .583-1.946c.664.198 1.16.427 1.876 1.07 1.114 1 1.423 3.9 1.492 4.765a1.016 1.016 0 0 1-1.013 1.096h-7.14c-.027 0-.054-.006-.08-.008-.027.002-.054.008-.082.008H1.78a1.015 1.015 0 0 1-1.013-1.096c.068-.864.377-3.766 1.491-4.765.717-.643 1.212-.872 1.876-1.07ZM8.999.25c2.429 0 4.405 2.447 4.405 5.455 0 3.009-1.976 5.456-4.405 5.456-2.43 0-4.405-2.447-4.405-5.456C4.594 2.697 6.57.25 9 .25Zm0 2.031c-1.287 0-2.374 1.568-2.374 3.424C6.625 7.561 7.712 9.13 9 9.13c1.287 0 2.373-1.568 2.373-3.424 0-1.856-1.086-3.424-2.373-3.424Z" fill="#282828" fill-rule="nonzero"></path></svg>