<svg xmlns="http://www.w3.org/2000/svg" width="25" height="33"><path d="M4.156 1.059a5.759 5.759 0 0 0-2.591 3.163s-3.461 7.499 2.034 17.017c5.496 9.518 13.48 10.796 13.48 10.796a5.77 5.77 0 0 0 4.418-.574 5.785 5.785 0 0 0 2.869-4.431l-.072-.392c-.094-.514-.562-1.111-1.038-1.328l-6.908-3.119a1.686 1.686 0 0 0-1.919.382 5.79 5.79 0 0 0-1.005 1.468c-6.737-5.5-6.877-12.282-6.877-12.282s1.571-.032 2.335-.297a.92.92 0 0 0 .607-.756l.95-8.214A1.623 1.623 0 0 0 9.512.83 5.292 5.292 0 0 0 8.58.483a5.834 5.834 0 0 0-1.317-.2c.006 0 .01.005.01.01l-.01-.01a5.799 5.799 0 0 0-3.107.776m.795 1.377a4.184 4.184 0 0 1 2.096-.564 1.6 1.6 0 0 0 .31.012c.271.021.542.067.793.135.235.065.456.147.68.254a.044.044 0 0 1 .023.043l-.895 7.73c-.41.064-.987.11-1.437.12a1.6 1.6 0 0 0-1.125.493 1.602 1.602 0 0 0-.447 1.14c.007.308.24 7.583 7.46 13.477a1.596 1.596 0 0 0 1.81.143c.277-.16.504-.401.645-.697.188-.391.433-.75.744-1.076a.083.083 0 0 1 .075-.003l6.876 3.103a.81.81 0 0 1 .163.184l.028.156a4.3 4.3 0 0 1-.334 1.118 4.163 4.163 0 0 1-1.714 1.88 4.149 4.149 0 0 1-3.193.415 1.74 1.74 0 0 0-.169-.036c-.073-.012-7.296-1.26-12.355-10.024C.003 11.811 2.893 5.155 3.015 4.883c.025-.054.047-.108.066-.163a4.157 4.157 0 0 1 1.87-2.284" fill="#000" fill-rule="evenodd"/></svg>